<svg viewBox="0 0 24 24" fill="none" xmlns="http://www.w3.org/2000/svg">
<path d="M12 2C13.1046 2 14 2.89543 14 4V6H16C17.1046 6 18 6.89543 18 8V10C18 11.1046 17.1046 12 16 12H8C6.89543 12 6 11.1046 6 10V8C6 6.89543 6.89543 6 8 6H10V4C10 2.89543 10.8954 2 12 2Z" fill="currentColor"/>
<path d="M12 14C15.3137 14 18 16.6863 18 20C18 21.1046 17.1046 22 16 22H8C6.89543 22 6 21.1046 6 20C6 16.6863 8.68629 14 12 14Z" fill="currentColor"/>
<circle cx="9" cy="9" r="1" fill="white"/>
<circle cx="15" cy="9" r="1" fill="white"/>
<path d="M10 10.5C10 10.2239 10.2239 10 10.5 10H13.5C13.7761 10 14 10.2239 14 10.5C14 10.7761 13.7761 11 13.5 11H10.5C10.2239 11 10 10.7761 10 10.5Z" fill="white"/>
</svg>
