<svg width="64" height="64" viewBox="0 0 64 64" fill="none" xmlns="http://www.w3.org/2000/svg">
<circle cx="8" cy="12" r="2" fill="#7FD3C1"/>
<path d="M48 8L56 16L48 24L40 16L48 8Z" fill="#A78BFA"/>
<circle cx="56" cy="32" r="3" fill="#7FD3C1"/>
<path d="M56 48L64 56L56 64L48 56L56 48Z" fill="#FED7AA"/>
<circle cx="8" cy="56" r="2" fill="#FBBF24"/>
<rect x="16" y="16" width="32" height="24" rx="4" fill="#60A5FA"/>
<rect x="18" y="18" width="28" height="20" rx="2" fill="#DBEAFE"/>
<rect x="20" y="20" width="24" height="16" rx="2" fill="#FFFFFF"/>
<path d="M24 24L32 28L40 24V32L32 36L24 32V24Z" fill="#F59E0B"/>
<circle cx="28" cy="28" r="2" fill="#EC4899"/>
<rect x="22" y="42" width="20" height="2" rx="1" fill="#A78BFA"/>
<rect x="22" y="46" width="16" height="2" rx="1" fill="#A78BFA"/>
<path d="M26 52C26 50 28 50 30 50H34C36 50 38 50 38 52" stroke="#A78BFA" stroke-width="2" stroke-linecap="round"/>
<path d="M34 52C34 50 36 50 38 50" stroke="#A78BFA" stroke-width="2" stroke-linecap="round"/>
</svg>
