<svg width="64" height="64" viewBox="0 0 64 64" fill="none" xmlns="http://www.w3.org/2000/svg">
<circle cx="8" cy="8" r="2" fill="#7FD3C1"/>
<circle cx="56" cy="16" r="3" fill="#7FD3C1"/>
<path d="M8 20L16 12L24 20L16 28L8 20Z" fill="#A78BFA"/>
<path d="M48 48L56 40L64 48L56 56L48 48Z" fill="#FED7AA"/>
<circle cx="48" cy="16" r="2" fill="#7FD3C1"/>
<rect x="8" y="40" width="8" height="8" rx="2" fill="#FEF08A"/>
<path d="M20 16C20 12 24 8 32 8C40 8 44 12 44 16C44 20 40 24 32 24C24 24 20 20 20 16Z" fill="#FF9F9F"/>
<path d="M24 20C24 16 26 14 32 14C38 14 40 16 40 20C40 24 38 26 32 26C26 26 24 24 24 20Z" fill="#FFAB91"/>
<path d="M16 32C16 28 20 24 32 24C44 24 48 28 48 32V40C48 44 45 48 40 48H24C19 48 16 44 16 40V32Z" fill="#8B5CF6"/>
<path d="M20 36C20 32 24 28 32 28C40 28 44 32 44 36V40C44 42 42 44 40 44H24C22 44 20 42 20 40V36Z" fill="#7FD3C1"/>
<rect x="28" y="52" width="8" height="8" rx="2" fill="#FDE047"/>
<circle cx="20" cy="60" r="2" fill="#F472B6"/>
</svg>
